PathFileType	3	(X/Y/Z)	D:\minhoCalibration\240510\subject5_KPNP\preferred\preferred18.trc
DataRate	CameraRate	NumFrames	NumMarkers	Units	OrigDataRate	OrigDataStartFrame	OrigNumFrames
200.0	200.0	15	10	mm	200.0	190	155	
Frame#	Time	Left_Ankle_Outer1			Left_Ankle_Inner1			Left_Knee_Outer1			Left_Knee_Inner1			Left_Wrist1			Right_Wrist1			Right_Knee_Inner1			Right_Knee_Outer1			Right_Ankle_Inner1			Right_Ankle_Outer1			
		X1	Y1	Z1	X2	Y2	Z2	X3	Y3	Z3	X4	Y4	Z4	X5	Y5	Z5	X6	Y6	Z6	X7	Y7	Z7	X8	Y8	Z8	X9	Y9	Z9	X10	Y10	Z10	
190	0.94	-84.987198	71.209534	-723.96893	-133.45731	85.162476	-713.20935	40.669239	524.67706	-610.39771	-52.120564	514.22778	-593.11676	96.964325	989.82483	-787.20483	-224.97527	1064.4396	-830.9516	-411.86716	588.12329	-623.90826	-471.8616	652.39844	-662.04272	-275.8501	351.7482	-996.99548	-320.21347	427.18976	-1039.6489
191	0.945	-84.823502	71.109894	-724.21234	-133.06207	85.58783	-713.14301	42.764622	524.07477	-611.80225	-49.310116	514.0426	-593.37421	98.803276	990.10431	-787.80774	-223.53023	1068.2692	-822.20764	-413.14133	599.17639	-602.59918	-472.86511	663.81726	-640.9729	-284.33365	363.19669	-981.05243	-329.12405	439.35101	-1021.9689
192	0.95	-84.245773	71.253304	-724.99506	-132.86369	85.779694	-713.11169	44.873245	523.70258	-613.55566	-46.754993	513.97089	-593.56134	100.43286	990.38196	-788.5694	-221.75337	1072.1814	-813.61621	-413.36844	609.63239	-584.35516	-473.58078	675.50342	-620.01611	-293.65125	375.14594	-964.53326	-338.27191	451.9024	-1004.3531
193	0.955	-84.203087	71.27507	-725.25702	-132.27373	86.105911	-713.71436	47.403885	523.59058	-615.15588	-44.20895	513.74506	-593.70099	101.77736	990.54926	-789.51849	-219.62758	1076.2236	-806.03735	-413.52591	620.69672	-564.63751	-473.94901	687.56055	-598.40198	-302.48837	387.50589	-948.38934	-347.24054	465.00906	-986.84003
194	0.96	-84.297913	71.26088	-725.43097	-132.53741	86.007996	-713.35236	49.301762	523.02338	-617.04883	-41.490967	513.5097	-594.33032	103.17236	990.71777	-790.80725	-217.69698	1080.1029	-797.1842	-413.30847	632.16406	-544.37067	-473.29166	699.58972	-578.99249	-311.5293	400.28571	-932.16455	-356.28018	478.42728	-969.35046
195	0.965	-84.494102	71.176941	-725.65723	-132.57849	86.216301	-713.15851	51.056244	522.67487	-618.74066	-39.501289	513.46301	-593.94653	104.18543	990.66064	-792.30884	-216.19479	1083.6971	-788.29712	-412.75595	643.93939	-525.02881	-472.07578	712.65076	-558.11652	-320.50287	413.26007	-916.10352	-365.17209	492.2565	-951.86353
196	0.97	-85.206367	70.903206	-725.32074	-132.60356	86.318062	-713.08533	52.895828	522.24408	-620.59802	-36.752602	513.69598	-594.31384	104.91346	990.48486	-794.08331	-213.87781	1087.495	-779.18579	-411.74072	655.74457	-506.45917	-470.43048	725.80475	-537.75372	-329.71985	426.54776	-899.97345	-373.88815	506.58786	-934.51605
197	0.975	-85.480446	70.907974	-725.57556	-132.74445	86.439171	-712.89856	54.740322	521.87018	-622.57269	-34.336052	513.26434	-594.23773	105.48871	990.33411	-796.32697	-211.72919	1090.5508	-770.49829	-410.10602	667.64087	-487.45715	-467.95563	739.03265	-517.97137	-338.97464	440.25189	-884.07697	-382.71399	521.08148	-917.02948
198	0.98	-85.614326	70.944771	-726.0473	-133.14017	86.586243	-712.26355	56.557873	521.51935	-624.56604	-31.915766	513.31042	-594.31183	105.74122	989.4989	-798.63104	-209.17722	1096.3076	-764.89612	-407.82928	679.84692	-468.68839	-464.96738	752.36127	-498.08771	-348.47299	454.39862	-868.23492	-391.27539	536.29962	-899.8266
199	0.985	-85.793808	71.043106	-726.44659	-133.22089	86.677505	-712.39856	58.182858	521.05298	-626.46307	-29.380381	513.34882	-594.11932	107.17555	989.09576	-798.84668	-206.24097	1099.5571	-755.05389	-404.86371	692.1557	-450.11523	-461.22028	766.04071	-477.98123	-358.02524	468.96988	-852.72766	-400.10623	551.72778	-882.51172
200	0.99	-85.461395	71.651466	-727.30457	-133.71243	87.053146	-711.828	60.055351	520.63116	-628.29803	-26.767906	512.93158	-593.94757	107.00626	988.77557	-800.89258	-203.13844	1104.337	-747.0567	-401.23337	704.53534	-431.69543	-456.00217	779.69464	-458.9881	-367.31833	484.27673	-837.54938	-408.92844	567.65198	-865.3775
201	0.995	-86.658089	71.161255	-727.10376	-133.916	87.129913	-711.44922	61.246616	520.00507	-629.58209	-24.220356	512.69861	-593.38605	106.14009	987.11664	-804.82422	-199.77069	1108.2935	-738.14813	-396.90674	716.89496	-413.02408	-450.68738	793.61017	-439.12262	-376.94656	499.64682	-822.14465	-417.75793	584.09845	-848.31213
202	1	-87.747124	70.681351	-726.78552	-134.52443	87.187111	-710.87537	64.090942	519.8504	-631.50287	-21.861301	512.20715	-592.43884	106.44733	986.49219	-806.30426	-195.45786	1112.1447	-728.4483	-391.8465	729.18042	-395.73312	-443.81952	807.52032	-420.33768	-386.75476	515.51624	-806.96429	-426.686	600.94891	-830.90167
203	1.005	-87.879234	71.134308	-727.54285	-134.57358	87.652916	-710.80139	66.274544	519.40045	-632.6264	-18.888382	511.6474	-591.73193	99.418312	981.72168	-816.82648	-191.35297	1115.7708	-719.40674	-385.33142	741.40906	-377.70724	-436.41431	821.32117	-401.54407	-397.04514	531.65845	-791.56348	-435.30847	618.31891	-814.58673
204	1.01	-89.32576	70.515648	-726.66882	-134.69568	87.877106	-710.85242	68.225937	518.7132	-633.26208	-15.800357	511.14041	-590.46301	97.386276	980.21637	-819.61505	-187.2159	1119.0769	-710.77075	-378.46683	753.55853	-361.37326	-427.79999	834.95807	-383.32455	-407.43497	548.02606	-776.08405	-444.42276	635.75293	-796.74194
